<svg xmlns="http://www.w3.org/2000/svg" viewBox="0 0 536.37 536.37"><defs><style>.cls-1{fill:#777;}.cls-2{fill:none;stroke-width:3.6px;}.cls-2,.cls-3{stroke:#fff;stroke-miterlimit:10;}.cls-3{fill:#353535;stroke-width:8px;}</style></defs><title>Asset 3</title><g id="Layer_2" data-name="Layer 2"><g id="Layer_1-2" data-name="Layer 1"><circle id="record" class="cls-1" cx="268.19" cy="268.19" r="268.19"/><path id="lines" class="cls-2" d="M463.17,268.19c0,107.68-87.3,195-195,195s-195-87.3-195-195,87.3-195,195-195S463.17,160.5,463.17,268.19Zm-195-154.3c-88.1,0-159.51,69.78-159.51,155.86s71.41,155.87,159.51,155.87,159.5-69.78,159.5-155.87S356.28,113.89,268.19,113.89Zm-1-79.94C135.05,34,27.93,138.63,27.93,267.75s107.12,233.8,239.26,233.8,239.25-104.67,239.25-233.8S399.32,34,267.19,34Z"/><rect id="movment" class="cls-1" x="20.93" y="173.01" width="492.89" height="185.37"/><path id="middle" class="cls-3" d="M355.72,265.7a88.54,88.54,0,1,1-88.53-88.54A88.54,88.54,0,0,1,355.72,265.7ZM267.19,245a20.68,20.68,0,1,0,20.68,20.68A20.68,20.68,0,0,0,267.19,245Z"/></g></g></svg>